<?xml version="1.0" encoding="UTF-8"?>
<svg id="Layer_2" data-name="Layer 2" xmlns="http://www.w3.org/2000/svg" viewBox="0 0 454.66 141.7">
  <defs>
    <style>
      .cls-1 {
        fill: none;
        stroke: #bb9b50;
        stroke-miterlimit: 10;
        stroke-width: 2px;
      }

      .cls-2 {
        fill: #101b35;
      }

      .cls-3 {
        fill: #bb9b50;
      }
    </style>
  </defs>
  <g id="Logo_Trace" data-name="Logo Trace">
    <g>
      <g>
        <path class="cls-2" d="M1.87,90.98c-1.57-.68-1.87-1.17-1.87-3.34,0-5.4.4-11.3.49-12.86.1-1.47.4-2.55,1.17-2.55.89,0,.98.89.98,1.66,0,1.28.4,3.34.89,5.01,2.16,7.27,7.95,9.92,14.05,9.92,8.84,0,13.16-5.99,13.16-11.2,0-4.82-1.47-9.33-9.63-15.72l-4.52-3.53c-10.8-8.44-14.54-15.32-14.54-23.29,0-10.8,9.03-18.57,22.69-18.57,3.74,0,6.68.4,9.03.79,1.66.3,2.95.59,4.02.89.89.19,1.38.49,1.38,1.17,0,1.28-.4,4.12-.4,11.79,0,2.16-.3,2.95-1.08,2.95-.68,0-.98-.59-.98-1.77,0-.89-.49-3.93-2.55-6.48-1.47-1.87-4.32-4.82-10.71-4.82-7.27,0-11.69,4.23-11.69,10.12,0,4.52,2.26,7.95,10.41,14.15l2.76,2.06c11.88,8.94,16.11,15.72,16.11,25.05,0,5.7-2.16,12.47-9.24,17.09-4.91,3.14-10.41,4.02-15.62,4.02-5.7,0-10.12-.68-14.34-2.55h.01Z"/>
        <path class="cls-2" d="M86.72,63.67c0,9.03,0,16.79.49,21.02.3,2.76.89,4.91,3.83,5.31,1.38.19,3.53.4,5.01.4,1.08,0,1.57.3,1.57.79,0,.68-.79.98-1.87.98-6.48,0-12.67-.3-15.43-.3-2.26,0-8.44.3-12.37.3-1.28,0-1.96-.3-1.96-.98,0-.49.4-.79,1.57-.79,1.47,0,2.65-.19,3.53-.4,1.96-.4,2.55-2.55,2.85-5.4.49-4.12.49-11.88.49-20.93V23.4c-3.74.1-9.82.3-14.64.4-5.7.19-8.05.68-9.52,2.85-.98,1.47-1.47,2.65-1.66,3.44s-.49,1.17-1.08,1.17c-.68,0-.89-.49-.89-1.57,0-1.57,1.87-10.5,2.06-11.3.3-1.28.59-1.87,1.17-1.87.79,0,1.77.98,4.23,1.17,2.85.3,6.58.49,9.82.49h38.89c3.14,0,5.31-.3,6.78-.49,1.47-.3,2.26-.49,2.65-.49.68,0,.79.59.79,2.06,0,2.06-.3,8.84-.3,11.39-.1.98-.3,1.57-.89,1.57-.79,0-.98-.49-1.08-1.96,0-.3-.1-.79-.1-1.08-.19-2.55-2.85-5.31-11.6-5.5-2.55-.1-6.58-.19-12.37-.3v40.27h.01Z"/>
        <path class="cls-2" d="M111.27,85.87c0-3.04,2.16-6.78,6.68-6.78,3.74,0,6.58,2.76,6.58,6.58s-2.95,6.88-6.68,6.88c-4.42,0-6.58-3.63-6.58-6.68h0Z"/>
        <path class="cls-2" d="M238.58,79.49c.89,6.19,1.87,9.03,4.82,9.92,2.85.89,4.82.98,6.08.98.89,0,1.57.1,1.57.68,0,.79-1.17,1.08-2.55,1.08-2.46,0-16.02-.3-19.94-.59-2.26-.19-2.85-.49-2.85-1.08,0-.49.4-.79,1.08-1.08.59-.19.89-1.47.49-4.23l-5.99-43.8-21.7,45.18c-2.26,4.61-2.76,5.5-3.63,5.5s-1.87-1.96-3.44-4.91c-2.36-4.52-10.12-19.55-11.3-22.3-.89-2.06-7.07-15.13-10.5-22.49l-5.21,39.78c-.19,1.77-.3,3.04-.3,4.61,0,1.87,1.28,2.76,2.95,3.14,1.77.4,3.14.49,4.12.49.79,0,1.47.19,1.47.68,0,.89-.89,1.08-2.36,1.08-4.12,0-8.54-.3-10.31-.3-1.87,0-6.58.3-9.73.3-.98,0-1.77-.19-1.77-1.08,0-.49.59-.68,1.57-.68.79,0,1.47,0,2.95-.3,2.76-.59,3.53-4.42,4.02-7.76l9.73-64.05c.3-1.66.89-2.55,1.66-2.55s1.38.49,2.65,3.04l26.82,55.4,26.72-56.09c.79-1.57,1.28-2.36,2.16-2.36s1.47.98,1.77,3.04l8.94,60.71.03.05Z"/>
        <path class="cls-2" d="M262.74,46.38c0-14.92,0-17.68-.19-20.83-.19-3.34-1.17-5.01-3.34-5.5-1.08-.3-2.36-.4-3.53-.4-.98,0-1.57-.19-1.57-.98,0-.59.79-.79,2.36-.79,3.74,0,9.92.3,12.77.3,2.46,0,8.25-.3,11.99-.3,1.28,0,2.06.19,2.06.79,0,.79-.59.98-1.57.98s-1.77.1-2.95.3c-2.65.49-3.44,2.16-3.63,5.59-.19,3.14-.19,5.89-.19,20.83v17.28c0,9.52,0,17.28.4,21.51.3,2.65.98,4.42,3.93,4.82,1.38.19,3.53.4,5.01.4,1.08,0,1.57.3,1.57.79,0,.68-.79.98-1.87.98-6.48,0-12.67-.3-15.32-.3-2.26,0-8.44.3-12.37.3-1.28,0-1.96-.3-1.96-.98,0-.49.4-.79,1.57-.79,1.47,0,2.65-.19,3.53-.4,1.96-.4,2.55-2.06,2.85-4.91.49-4.12.49-11.88.49-21.42v-17.28h-.03Z"/>
        <path class="cls-2" d="M303.59,19.56c0-1.96.3-3.34,1.28-3.34,1.08,0,1.96,1.28,3.63,3.04,1.17,1.28,16.11,17.28,30.45,31.53,6.68,6.68,20.44,21.31,22.1,22.89l-.98-44.59c-.1-5.99-.98-7.86-3.34-8.84-1.47-.59-3.83-.59-5.21-.59-1.17,0-1.57-.3-1.57-.89,0-.79,1.08-.89,2.55-.89,5.12,0,9.82.3,11.88.3,1.08,0,4.82-.3,9.63-.3,1.28,0,2.26.1,2.26.89,0,.59-.59.89-1.77.89-.98,0-1.77,0-2.95.3-2.76.79-3.53,2.85-3.63,8.35-.4,20.72-.68,41.25-1.08,61.99,0,2.16-.4,3.04-1.28,3.04-1.08,0-2.26-1.08-3.34-2.16-6.19-5.89-18.76-18.76-28.97-28.88-10.71-10.61-21.91-23.18-23.67-25.05l1.08,41.55c.19,7.67,1.47,10.22,3.44,10.9,1.66.59,3.53.68,5.1.68,1.08,0,1.66.19,1.66.79,0,.79-.89.98-2.26.98-6.38,0-10.31-.3-12.18-.3-.89,0-5.5.3-10.61.3-1.28,0-2.16-.1-2.16-.98,0-.59.59-.79,1.57-.79,1.28,0,3.04-.1,4.42-.49,2.55-.79,2.95-3.63,3.04-12.18.3-20.82.68-45.09.89-58.15h.03Z"/>
        <path class="cls-2" d="M400.13,66.52c-.49,0-.68.19-.89.79l-5.31,14.05c-.98,2.46-1.47,4.82-1.47,5.99,0,1.77.89,3.04,3.93,3.04h1.47c1.17,0,1.47.19,1.47.79,0,.79-.59.98-1.66.98-3.14,0-7.37-.3-10.41-.3-1.08,0-6.48.3-11.6.3-1.28,0-1.87-.19-1.87-.98,0-.59.59-.79,1.38-.79.89,0,2.06-.1,2.85-.19,4.52-.59,6.38-3.93,8.35-8.84l24.65-61.69c1.17-2.85,1.87-3.93,2.76-3.93.79,0,1.47.89,2.46,3.14,2.36,5.4,18.08,45.48,24.36,60.4,3.74,8.84,6.59,10.22,8.65,10.71,1.47.3,2.95.4,4.12.4.79,0,1.28.19,1.28.79,0,.79-.89.98-4.52.98s-11.39,0-19.25-.19c-1.77-.1-2.26-.19-2.26-.79,0-.49.4-.79,1.38-.89.68-.19,1.38-1.08.89-2.26l-7.86-20.82c-.19-.49-.49-.68-.98-.68h-21.92ZM420.17,61.61c.49,0,.59-.3.49-.59l-8.84-24.27c-.3-.89-.68-1.17-1.08,0l-9.03,24.16c-.1.4,0,.68.4.68h18.08-.01Z"/>
      </g>
      <line class="cls-1" y1="108.83" x2="454.65" y2="108.83"/>
      <g id="cross-2">
        <polygon class="cls-3" points="270.72 5.14 270.72 0 267.52 0 267.52 5.14 262.46 5.14 262.46 8.35 267.52 8.35 267.52 17.04 270.72 17.04 270.72 8.35 275.78 8.35 275.78 5.14 270.72 5.14"/>
      </g>
      <g>
        <path class="cls-2" d="M13.71,138.88c-2.51-2.25-3.14-5.21-3.14-7.67,0-1.73.6-4.77,2.91-7.08,1.56-1.56,3.92-2.77,7.9-2.77,1.04,0,2.48.08,3.75.31.98.18,1.79.26,2.74.4.18.03.23.12.23.29,0,.2-.08.52-.14,1.45-.05.86-.05,2.28-.08,2.67s-.08.55-.23.55c-.18,0-.2-.18-.2-.55,0-1.01-.41-2.07-1.09-2.65-.91-.78-2.91-1.47-5.18-1.47-3.45,0-5.05,1.01-5.96,1.9-1.9,1.81-2.33,4.12-2.33,6.77,0,4.95,3.81,9.48,9.36,9.48,1.94,0,3.48-.23,4.52-1.3.55-.57.89-1.71.95-2.18.05-.29.11-.4.26-.4.14,0,.18.18.18.4,0,.18-.31,2.44-.57,3.31-.15.49-.2.55-.67.75-1.04.41-3,.6-4.67.6-3.89,0-6.51-.95-8.55-2.8h.03Z"/>
        <path class="cls-2" d="M33.27,132.95c0-3.45,2.67-8.61,9.07-8.61,5.13,0,9.04,3.06,9.04,8.27s-3.66,8.99-9.18,8.99c-6.34,0-8.94-4.72-8.94-8.65ZM48.96,133.26c0-5.21-3.22-8.12-6.77-8.12s-6.51,2.22-6.51,7.12,2.82,8.44,7.18,8.44c1.73,0,6.08-.89,6.08-7.46h.01Z"/>
        <path class="cls-2" d="M58.7,131.03c0-3.57,0-4.04-.05-4.75-.05-.67-.26-1.09-.98-1.24-.18-.03-.6-.05-.8-.05-.05,0-.15-.05-.15-.12,0-.15.12-.2.37-.2,1.12,0,2.54.08,2.7.08.55,0,1.87-.08,2.93-.08,2.85,0,3.89.93,4.26,1.24.49.44,1.15,1.45,1.15,2.91,0,2.88-2.39,4.98-5.62,4.98-.11,0-.37,0-.49-.03-.11,0-.23-.05-.23-.15,0-.2.15-.2.65-.2,2.05,0,3.75-1.41,3.75-3.68,0-.34.08-1.9-1.12-3.14-1.27-1.35-2.74-1.21-3.22-1.21-.34,0-.72.05-.89.14-.12.05-.15.23-.15.41v8.96c0,1.99,0,3.86.11,4.79.08.63.2,1.15.91,1.21.31.05.83.11,1.04.11.11,0,.15.05.15.14,0,.12-.11.2-.37.2-1.35,0-2.8-.08-2.93-.08-.03,0-1.56.08-2.28.08-.23,0-.37-.05-.37-.2,0-.08.05-.14.18-.14.18,0,.46-.05.67-.11.46-.08.6-.6.67-1.21.12-.93.12-2.8.12-4.75v-3.89h0Z"/>
        <path class="cls-2" d="M80.85,134.92c0,1.99.03,3.83.14,4.79.08.63.12.98.78,1.15.31.08.8.11,1.01.11s.31.08.31.15c0,.12-.08.2-.34.2-1.32,0-2.85-.08-2.96-.08s-1.64.08-2.31.08c-.29,0-.38-.05-.38-.18,0-.08.08-.18.29-.18s.37,0,.57-.03c.49-.08.57-.4.67-1.27.11-.93.11-2.8.11-4.75v-9.25c-.86,0-2.22,0-3.26.03-1.66.03-2.02.29-2.39.83-.23.37-.34.67-.38.8-.08.18-.14.2-.23.2s-.14-.11-.14-.23c-.03-.15.37-1.87.52-2.56.08-.31.15-.41.23-.41.18,0,.67.23,1.15.29.91.11,1.64.12,1.66.12h8.5c.72,0,1.5-.05,1.87-.12.34-.08.41-.11.49-.11.11,0,.15.14.15.23,0,.72-.05,2.44-.05,2.65,0,.23-.11.31-.18.31-.12,0-.18-.11-.18-.31,0-.08,0-.11-.03-.37-.11-1.04-.44-1.3-3.06-1.32-.98,0-1.79-.03-2.54-.03v9.25h-.03Z"/>
        <path class="cls-2" d="M93.61,131.03c0-3.42,0-4.04-.05-4.75-.05-.7-.2-1.09-.75-1.19-.26-.05-.44-.05-.6-.08-.18-.03-.29-.08-.29-.18,0-.12.11-.18.38-.18.8,0,2.28.08,2.36.08.11,0,1.61-.08,2.33-.08.26,0,.4.05.4.18,0,.11-.08.15-.29.18-.15.03-.29.03-.46.05-.75.11-.83.49-.89,1.24-.05.7-.03,1.3-.03,4.72v3.89c0,1.99-.03,3.81.11,4.75.11.75.2,1.04.89,1.19.34.08.89.11.98.11.23.03.29.08.29.18s-.11.18-.37.18c-1.32,0-2.82-.08-2.96-.08-.08,0-1.61.08-2.33.08-.23,0-.41-.05-.41-.18,0-.11.11-.18.34-.18.14,0,.41-.03.63-.08.44-.11.52-.63.6-1.24.12-.93.12-2.77.12-4.72v-3.89h0Z"/>
        <path class="cls-2" d="M105.76,139.25c-2.2-1.92-2.77-4.46-2.77-6.6,0-1.45.57-4.02,2.62-5.99,1.41-1.35,3.49-2.31,6.97-2.31,1.19,0,2.16.11,3.42.29.83.12,1.66.26,2.28.29.2,0,.23.12.23.26,0,.2-.08.44-.14,1.27-.03.72-.03,2.07-.05,2.39-.03.37-.08.49-.2.49-.18,0-.2-.15-.2-.49,0-.75-.37-1.76-1.01-2.25-.78-.67-2.59-1.32-4.58-1.32-2.88,0-4.2.8-4.98,1.5-1.68,1.53-2.07,3.4-2.07,5.67,0,4.3,3.49,8.09,8.06,8.09,1.76,0,3.06-.18,3.97-1.06.46-.49.72-1.15.86-1.87.05-.26.14-.4.29-.4.14,0,.14.18.14.37,0,.2-.34,2.31-.52,2.88-.15.41-.23.49-.6.64-.91.4-2.65.52-4.09.52-3.42,0-5.76-.78-7.6-2.36h-.01Z"/>
        <path class="cls-2" d="M134.18,131.5c0-4.2,3.06-10.14,10.2-10.14,5.82,0,10.19,3.68,10.19,9.71s-4.09,10.6-10.34,10.6c-7.11,0-10.05-5.52-10.05-10.19h0ZM152.09,131.8c0-6.22-3.78-9.56-7.87-9.56-4.32,0-7.57,2.85-7.57,8.53,0,6.04,3.63,9.93,8.29,9.93,2.33,0,7.15-1.35,7.15-8.89Z"/>
        <path class="cls-2" d="M162.27,131.03c0-3.42,0-4.04-.05-4.75-.05-.7-.23-1.09-1.04-1.24-.15-.03-.41-.05-.63-.05-.18,0-.29-.05-.29-.15s.08-.18.31-.18c1.12,0,2.7.08,2.74.08.23,0,1.99-.08,2.71-.08,1.45,0,3.03.12,4.26.98.49.37,1.56,1.41,1.56,3.16,0,1.42-.7,3.23-2.74,4.9,1.9,2.33,3.45,4.26,4.77,5.62,1.24,1.27,2.02,1.47,2.74,1.58.18.03.72.05.8.05.2,0,.29.08.29.18,0,.12-.11.18-.46.18h-1.81c-1.21,0-1.79-.08-2.36-.31-1.09-.46-1.87-1.64-3.22-3.37-1.01-1.24-2.05-2.65-2.48-3.19-.11-.11-.15-.15-.31-.15l-2.67-.03c-.11,0-.14.03-.14.12v.37c0,2.07,0,3.97.14,4.9.08.63.15,1.15,1.01,1.24.26.03.55.05.75.05.23,0,.34.08.34.15,0,.12-.11.2-.37.2-1.35,0-2.8-.08-2.91-.08-.41,0-1.56.08-2.25.08-.26,0-.37-.05-.37-.2,0-.08.15-.15.31-.15.18,0,.37,0,.57-.05.44-.08.6-.37.67-.98.12-.93.11-3.06.11-5.01v-3.89h.01ZM164.27,132.87c0,.12.03.26.14.31.34.18,1.38.34,2.31.34.55,0,1.19-.03,1.73-.4.78-.49,1.3-1.64,1.3-3.29,0-2.82-1.5-4.38-3.81-4.38-.64,0-1.19.05-1.5.12-.08.03-.15.11-.15.23v7.05h-.01Z"/>
        <path class="cls-2" d="M185.73,134.92c0,1.99.03,3.83.14,4.79.08.63.12.98.78,1.15.31.08.8.11,1.01.11s.31.08.31.15c0,.12-.08.2-.34.2-1.32,0-2.85-.08-2.96-.08s-1.64.08-2.31.08c-.29,0-.38-.05-.38-.18,0-.08.08-.18.29-.18s.37,0,.57-.03c.49-.08.57-.4.67-1.27.11-.93.11-2.8.11-4.75v-9.25c-.86,0-2.22,0-3.26.03-1.66.03-2.02.29-2.39.83-.23.37-.34.67-.38.8-.08.18-.14.2-.23.2s-.14-.11-.14-.23c-.03-.15.37-1.87.52-2.56.08-.31.15-.41.23-.41.18,0,.67.23,1.15.29.91.11,1.64.12,1.66.12h8.5c.72,0,1.5-.05,1.87-.12.34-.08.41-.11.49-.11.11,0,.15.14.15.23,0,.72-.05,2.44-.05,2.65,0,.23-.11.31-.18.31-.12,0-.18-.11-.18-.31,0-.08,0-.11-.03-.37-.11-1.04-.44-1.3-3.06-1.32-.98,0-1.79-.03-2.54-.03v9.25h-.03Z"/>
        <path class="cls-2" d="M210.15,131.6c.08,0,.15,0,.15-.12v-.46c0-3.42,0-4.01-.05-4.72-.05-.7-.15-1.06-1.01-1.21-.18-.03-.44-.05-.65-.05-.18,0-.31-.08-.31-.18,0-.15.14-.18.37-.18,1.09,0,2.62.08,2.71.08s1.56-.08,2.33-.08c.26,0,.41.03.41.18,0,.08-.08.18-.29.18-.15,0-.37.03-.52.05-.7.11-.8.52-.86,1.24-.03.7-.03,1.3-.03,4.72v3.89c0,2.13,0,3.81.11,4.75.08.63.2,1.15.89,1.21.34.05.67.08.91.08.2,0,.34.08.34.18,0,.12-.14.18-.4.18-1.3,0-2.8-.08-2.93-.08-.11,0-1.61.08-2.31.08-.26,0-.38-.05-.38-.2,0-.08.08-.15.29-.15s.38,0,.6-.05c.44-.08.57-.64.64-1.24.14-.93.14-2.56.14-4.67v-2.31c0-.11-.08-.15-.15-.15h-9.41c-.08,0-.12.03-.12.15v2.31c0,2.1,0,3.78.12,4.72.08.57.2,1.09.89,1.17.34.05.72.08.93.08.18,0,.31.08.31.18s-.11.18-.34.18c-1.32,0-2.85-.08-2.97-.08-.08,0-1.66.08-2.33.08-.26,0-.41-.05-.41-.18,0-.08.05-.18.29-.18.2,0,.41-.03.63-.08.46-.11.57-.6.65-1.17.15-.93.12-2.67.12-4.79v-3.83c0-3.42,0-4.09-.05-4.79-.05-.67-.23-1.17-.98-1.24-.23-.03-.49-.05-.7-.05-.18,0-.29-.08-.29-.15,0-.15.12-.18.38-.18,1.12,0,2.36.08,2.7.08.11,0,1.61-.08,2.33-.08.26,0,.4.05.4.18,0,.11-.11.15-.26.15s-.23,0-.52.05c-.65.11-.8.55-.86,1.27-.03.7-.03,1.27-.03,4.69v.46c0,.12.08.12.15.12h9.39v-.03Z"/>
        <path class="cls-2" d="M219.63,132.95c0-3.45,2.67-8.61,9.07-8.61,5.13,0,9.04,3.06,9.04,8.27s-3.66,8.99-9.17,8.99c-6.34,0-8.94-4.72-8.94-8.65h-.01ZM235.32,133.26c0-5.21-3.22-8.12-6.77-8.12s-6.51,2.22-6.51,7.12,2.82,8.44,7.18,8.44c1.73,0,6.08-.89,6.08-7.46h.01Z"/>
        <path class="cls-2" d="M245.03,131.03c0-3.42,0-4.07-.05-4.75-.05-.7-.26-1.06-1.01-1.21-.15-.03-.55-.05-.75-.05-.14,0-.26-.08-.26-.15,0-.15.15-.2.4-.2,1.06,0,2.7.08,2.77.08.18,0,1.53-.08,2.97-.08,2.28,0,6.53-.23,9.28,2.54,1.15,1.15,2.2,2.96,2.2,5.57,0,2.74-1.19,4.9-2.46,6.19-1.01,1.01-2.97,2.54-6.92,2.54-.98,0-2.25-.05-3.25-.14-.98-.05-1.79-.12-1.87-.12-.05,0-.4,0-.89.03-.49,0-1.12.05-1.5.05-.23,0-.37-.05-.37-.18,0-.08.08-.18.29-.18s.4-.03.6-.08c.44-.08.6-.63.67-1.19.15-.95.12-2.73.12-4.82v-3.83h.03ZM247.16,133.24c0,2.33.03,4.35.03,4.75.03.8.08,1.5.26,1.73.29.44,1.12.98,3.81.98,2.13,0,4.04-.67,5.39-2.02,1.15-1.15,1.69-3.08,1.69-5.16,0-2.93-1.35-4.72-2.22-5.57-2.21-2.21-4.75-2.46-7.31-2.46-.37,0-1.16.08-1.32.18-.2.11-.29.2-.29.44-.03.75-.03,2.96-.03,4.52v2.62h0Z"/>
        <path class="cls-2" d="M265.9,132.95c0-3.45,2.67-8.61,9.07-8.61,5.13,0,9.04,3.06,9.04,8.27s-3.66,8.99-9.18,8.99c-6.34,0-8.94-4.72-8.94-8.65ZM281.58,133.26c0-5.21-3.22-8.12-6.77-8.12s-6.51,2.22-6.51,7.12,2.82,8.44,7.18,8.44c1.73,0,6.08-.89,6.08-7.46h.01Z"/>
        <path class="cls-2" d="M294.02,132.84l-3.68-5.96c-.63-.98-.93-1.47-1.69-1.71-.4-.12-.78-.15-.91-.15-.26,0-.34-.11-.34-.18,0-.11.08-.18.4-.18.6,0,2.65.08,2.8.08.2,0,1.42-.08,2.22-.08.34,0,.41.05.41.15,0,.12-.11.2-.31.2-.12,0-.46.03-.63.08-.18.05-.26.18-.26.31,0,.23.11.44.31.8,1.06,1.94,1.81,3.22,3,5.1.67-.95,3.06-4.56,3.26-5.05.18-.34.29-.49.29-.78,0-.15-.08-.37-.46-.41-.18-.03-.44-.05-.57-.05-.18,0-.31-.08-.31-.2,0-.08.08-.15.37-.15.93,0,1.96.08,2.16.08.2,0,1.21-.08,2.05-.08.23,0,.31.08.31.15,0,.12-.12.2-.29.2-.23,0-.55.05-.83.14-.63.18-1.09.93-1.69,1.76l-3.66,5.27c.46.72,4.32,7.08,4.82,7.67.31.38.64.86,1.3,1.01.34.08.6.11.7.11.26,0,.31.11.31.18,0,.12-.11.18-.34.18-1.45,0-2.91.03-4.17-.05-.41-.03-.4-.11-.4-.23,0-.08.11-.11.26-.15.26-.08.18-.29-.03-.63-1.19-2.16-2.48-4.27-3.81-6.43l-3.49,5.7c-.18.31-.4.72-.4.95,0,.2.15.4.46.44.15.03.18.03.31.03.23,0,.31.08.31.18s-.08.18-.29.18c-.55,0-2.07-.08-2.28-.08-.15,0-1.19.08-1.99.08-.26,0-.34-.11-.34-.18,0-.11.11-.18.29-.18.15,0,.4-.03.75-.11.67-.18,1.17-.67,1.9-1.76l4.15-6.25h.05Z"/>
        <path class="cls-2" d="M320.2,138.88c-2.51-2.25-3.14-5.21-3.14-7.67,0-1.73.6-4.77,2.91-7.08,1.56-1.56,3.92-2.77,7.9-2.77,1.04,0,2.48.08,3.75.31.98.18,1.79.26,2.74.4.18.03.23.12.23.29,0,.2-.08.52-.12,1.45-.05.86-.05,2.28-.08,2.67-.03.4-.08.55-.23.55-.18,0-.2-.18-.2-.55,0-1.01-.41-2.07-1.09-2.65-.9-.78-2.91-1.47-5.18-1.47-3.45,0-5.06,1.01-5.96,1.9-1.9,1.81-2.33,4.12-2.33,6.77,0,4.95,3.81,9.48,9.36,9.48,1.94,0,3.48-.23,4.52-1.3.55-.57.89-1.71.95-2.18.05-.29.11-.4.26-.4.12,0,.18.18.18.4,0,.18-.31,2.44-.57,3.31-.15.49-.2.55-.67.75-1.04.41-3,.6-4.67.6-3.89,0-6.51-.95-8.55-2.8h.01Z"/>
        <path class="cls-2" d="M353.63,131.6c.08,0,.15,0,.15-.12v-.46c0-3.42,0-4.01-.05-4.72-.05-.7-.15-1.06-1.01-1.21-.18-.03-.44-.05-.64-.05-.18,0-.31-.08-.31-.18,0-.15.12-.18.37-.18,1.09,0,2.62.08,2.71.08s1.56-.08,2.33-.08c.26,0,.41.03.41.18,0,.08-.08.18-.29.18-.15,0-.37.03-.52.05-.7.11-.8.52-.86,1.24-.03.7-.03,1.3-.03,4.72v3.89c0,2.13,0,3.81.11,4.75.08.63.2,1.15.89,1.21.34.05.67.08.91.08.2,0,.34.08.34.18,0,.12-.12.18-.4.18-1.3,0-2.8-.08-2.93-.08-.11,0-1.61.08-2.31.08-.26,0-.4-.05-.4-.2,0-.08.08-.15.29-.15s.4,0,.6-.05c.44-.08.57-.64.65-1.24.12-.93.12-2.56.12-4.67v-2.31c0-.11-.08-.15-.15-.15h-9.41c-.08,0-.14.03-.14.15v2.31c0,2.1,0,3.78.14,4.72.08.57.2,1.09.89,1.17.34.05.72.08.93.08.18,0,.31.08.31.18s-.11.18-.34.18c-1.32,0-2.85-.08-2.97-.08-.08,0-1.66.08-2.33.08-.26,0-.41-.05-.41-.18,0-.08.05-.18.29-.18.2,0,.41-.03.63-.08.46-.11.57-.6.64-1.17.15-.93.12-2.67.12-4.79v-3.83c0-3.42,0-4.09-.05-4.79-.05-.67-.23-1.17-.98-1.24-.23-.03-.49-.05-.7-.05-.18,0-.29-.08-.29-.15,0-.15.12-.18.4-.18,1.12,0,2.36.08,2.7.08.11,0,1.61-.08,2.33-.08.26,0,.38.05.38.18,0,.11-.11.15-.26.15s-.23,0-.52.05c-.65.11-.8.55-.86,1.27-.03.7-.03,1.27-.03,4.69v.46c0,.12.08.12.15.12h9.39v-.03Z"/>
        <path class="cls-2" d="M366.56,134.12c0,3.16.6,4.52,1.58,5.39,1.12.98,2.36,1.19,3.42,1.19,1.35,0,2.56-.37,3.55-1.5,1.04-1.19,1.27-3.16,1.27-5.42v-2.74c0-3.4,0-3.98-.05-4.69-.05-.75-.14-1.13-.95-1.27-.18-.03-.49-.05-.72-.05-.15,0-.26-.08-.26-.15,0-.15.12-.2.37-.2,1.12,0,2.41.08,2.51.08.12,0,1.24-.08,1.96-.08.26,0,.37.05.37.18,0,.11-.11.18-.26.18s-.2,0-.46.03c-.72.08-.83.55-.89,1.3-.03.7-.03,1.3-.03,4.69v2.31c0,2.33-.26,5.13-2.1,6.71-1.68,1.42-3.34,1.56-4.75,1.56-.72,0-3.16,0-4.84-1.56-1.12-1.04-1.92-2.59-1.92-5.8v-3.22c0-3.42,0-4.01-.08-4.72-.03-.7-.15-1.15-.95-1.24-.15-.03-.46-.05-.67-.05-.18,0-.29-.08-.29-.15,0-.15.11-.2.4-.2,1.12,0,2.51.08,2.7.08.2,0,1.73-.08,2.44-.08.29,0,.37.05.37.18s-.18.18-.31.18c-.15,0-.37.03-.57.05-.63.08-.72.52-.78,1.24-.03.7-.03,1.3-.03,4.72v3.08h-.01Z"/>
        <path class="cls-2" d="M386.68,131.03c0-3.42,0-4.04-.05-4.75-.05-.7-.23-1.09-1.04-1.24-.15-.03-.41-.05-.63-.05-.18,0-.29-.05-.29-.15s.08-.18.31-.18c1.12,0,2.7.08,2.74.08.23,0,1.99-.08,2.73-.08,1.45,0,3.03.12,4.26.98.49.37,1.56,1.41,1.56,3.16,0,1.42-.7,3.23-2.74,4.9,1.9,2.33,3.45,4.26,4.77,5.62,1.24,1.27,2.02,1.47,2.74,1.58.18.03.72.05.8.05.2,0,.29.08.29.18,0,.12-.11.18-.46.18h-1.81c-1.21,0-1.79-.08-2.36-.31-1.09-.46-1.87-1.64-3.22-3.37-1.01-1.24-2.05-2.65-2.48-3.19-.11-.11-.15-.15-.31-.15l-2.67-.03c-.11,0-.12.03-.12.12v.37c0,2.07,0,3.97.12,4.9.08.63.15,1.15,1.01,1.24.26.03.55.05.75.05.23,0,.34.08.34.15,0,.12-.11.2-.37.2-1.35,0-2.8-.08-2.91-.08-.41,0-1.56.08-2.25.08-.26,0-.37-.05-.37-.2,0-.08.15-.15.31-.15.18,0,.37,0,.57-.05.44-.08.6-.37.67-.98.12-.93.11-3.06.11-5.01v-3.89h0ZM388.68,132.87c0,.12.03.26.12.31.34.18,1.38.34,2.31.34.55,0,1.19-.03,1.73-.4.78-.49,1.3-1.64,1.3-3.29,0-2.82-1.5-4.38-3.81-4.38-.65,0-1.19.05-1.5.12-.08.03-.15.11-.15.23v7.05h0Z"/>
        <path class="cls-2" d="M406.56,139.25c-2.2-1.92-2.77-4.46-2.77-6.6,0-1.45.57-4.02,2.62-5.99,1.41-1.35,3.49-2.31,6.97-2.31,1.19,0,2.16.11,3.42.29.83.12,1.66.26,2.28.29.2,0,.23.12.23.26,0,.2-.08.44-.12,1.27-.03.72-.03,2.07-.05,2.39-.03.37-.08.49-.2.49-.18,0-.2-.15-.2-.49,0-.75-.37-1.76-1.01-2.25-.78-.67-2.59-1.32-4.58-1.32-2.88,0-4.2.8-4.98,1.5-1.68,1.53-2.07,3.4-2.07,5.67,0,4.3,3.49,8.09,8.06,8.09,1.76,0,3.06-.18,3.97-1.06.46-.49.72-1.15.86-1.87.05-.26.12-.4.29-.4.12,0,.12.18.12.37,0,.2-.34,2.31-.52,2.88-.15.41-.23.49-.6.64-.91.4-2.65.52-4.09.52-3.42,0-5.76-.78-7.6-2.36h-.01Z"/>
        <path class="cls-2" d="M438.25,131.6c.08,0,.15,0,.15-.12v-.46c0-3.42,0-4.01-.05-4.72-.05-.7-.15-1.06-1.01-1.21-.18-.03-.44-.05-.64-.05-.18,0-.31-.08-.31-.18,0-.15.12-.18.37-.18,1.09,0,2.62.08,2.71.08s1.56-.08,2.33-.08c.26,0,.41.03.41.18,0,.08-.08.18-.29.18-.15,0-.37.03-.52.05-.7.11-.8.52-.86,1.24-.03.7-.03,1.3-.03,4.72v3.89c0,2.13,0,3.81.11,4.75.08.63.2,1.15.89,1.21.34.05.67.08.91.08.2,0,.34.08.34.18,0,.12-.12.18-.4.18-1.3,0-2.8-.08-2.93-.08-.11,0-1.61.08-2.31.08-.26,0-.4-.05-.4-.2,0-.08.08-.15.29-.15s.4,0,.6-.05c.44-.08.57-.64.65-1.24.12-.93.12-2.56.12-4.67v-2.31c0-.11-.08-.15-.15-.15h-9.41c-.08,0-.14.03-.14.15v2.31c0,2.1,0,3.78.14,4.72.08.57.2,1.09.89,1.17.34.05.72.08.93.08.18,0,.31.08.31.18s-.11.18-.34.18c-1.32,0-2.85-.08-2.97-.08-.08,0-1.66.08-2.33.08-.26,0-.41-.05-.41-.18,0-.08.05-.18.29-.18.2,0,.41-.03.63-.08.46-.11.57-.6.64-1.17.15-.93.12-2.67.12-4.79v-3.83c0-3.42,0-4.09-.05-4.79-.05-.67-.23-1.17-.98-1.24-.23-.03-.49-.05-.7-.05-.18,0-.29-.08-.29-.15,0-.15.12-.18.4-.18,1.12,0,2.36.08,2.7.08.11,0,1.61-.08,2.33-.08.26,0,.38.05.38.18,0,.11-.11.15-.26.15s-.23,0-.52.05c-.65.11-.8.55-.86,1.27-.03.7-.03,1.27-.03,4.69v.46c0,.12.08.12.15.12h9.39v-.03Z"/>
      </g>
    </g>
  </g>
</svg>