<?xml version="1.0" encoding="UTF-8"?>
<svg id="Logo_Trace" xmlns="http://www.w3.org/2000/svg" version="1.1" viewBox="0 0 1069.8 156.7">
  <!-- Generator: Adobe Illustrator 30.5.1, SVG Export Plug-In . SVG Version: 2.1.4 Build 3)  -->
  <defs>
    <style>
      .st0 {
        fill: none;
        stroke: #bb9b50;
        stroke-miterlimit: 10;
        stroke-width: 2px;
      }

      .st1 {
        fill: #101b35;
      }

      .st2 {
        fill: #bb9b50;
      }
    </style>
  </defs>
  <g>
    <g>
      <path class="st1" d="M617,105.9c-1.6-.7-1.9-1.2-1.9-3.3,0-5.4.4-11.3.5-12.9,0-1.5.4-2.6,1.2-2.6s1,.9,1,1.7c0,1.3.4,3.3.9,5,2.2,7.3,8,9.9,14.1,9.9,8.8,0,13.2-6,13.2-11.2s-1.5-9.3-9.6-15.7l-4.5-3.5c-10.8-8.4-14.5-15.3-14.5-23.3s9-18.6,22.7-18.6,6.7.4,9,.8c1.7.3,2.9.6,4,.9.9.2,1.4.5,1.4,1.2,0,1.3-.4,4.1-.4,11.8s-.3,2.9-1.1,2.9-1-.6-1-1.8-.5-3.9-2.6-6.5c-1.5-1.9-4.3-4.8-10.7-4.8s-11.7,4.2-11.7,10.1,2.3,8,10.4,14.1l2.8,2.1c11.9,8.9,16.1,15.7,16.1,25s-2.2,12.5-9.2,17.1c-4.9,3.1-10.4,4-15.6,4s-10.1-.7-14.3-2.6h0Z"/>
      <path class="st1" d="M701.9,78.6c0,9,0,16.8.5,21,.3,2.8.9,4.9,3.8,5.3,1.4.2,3.5.4,5,.4s1.6.3,1.6.8-.8,1-1.9,1c-6.5,0-12.7-.3-15.4-.3s-8.4.3-12.4.3-2-.3-2-1,.4-.8,1.6-.8,2.6-.2,3.5-.4c2-.4,2.6-2.6,2.9-5.4.5-4.1.5-11.9.5-20.9v-40.3c-3.7,0-9.8.3-14.6.4-5.7.2-8,.7-9.5,2.9-1,1.5-1.5,2.6-1.7,3.4s-.5,1.2-1.1,1.2-.9-.5-.9-1.6c0-1.6,1.9-10.5,2.1-11.3.3-1.3.6-1.9,1.2-1.9s1.8,1,4.2,1.2c2.9.3,6.6.5,9.8.5h38.9c3.1,0,5.3-.3,6.8-.5,1.5-.3,2.3-.5,2.6-.5.7,0,.8.6.8,2.1s-.3,8.8-.3,11.4c0,1-.3,1.6-.9,1.6s-1-.5-1.1-2c0-.3,0-.8,0-1.1-.2-2.6-2.9-5.3-11.6-5.5-2.6,0-6.6-.2-12.4-.3v40.3h0Z"/>
      <path class="st1" d="M726.4,100.8c0-3,2.2-6.8,6.7-6.8s6.6,2.8,6.6,6.6-2.9,6.9-6.7,6.9-6.6-3.6-6.6-6.7h0Z"/>
      <path class="st1" d="M853.7,94.5c.9,6.2,1.9,9,4.8,9.9,2.9.9,4.8,1,6.1,1s1.6,0,1.6.7-1.2,1.1-2.6,1.1c-2.5,0-16-.3-19.9-.6-2.3-.2-2.9-.5-2.9-1.1s.4-.8,1.1-1.1c.6-.2.9-1.5.5-4.2l-6-43.8-21.7,45.2c-2.3,4.6-2.8,5.5-3.6,5.5s-1.9-2-3.4-4.9c-2.4-4.5-10.1-19.5-11.3-22.3-.9-2.1-7.1-15.1-10.5-22.5l-5.2,39.8c-.2,1.8-.3,3-.3,4.6s1.3,2.8,2.9,3.1c1.8.4,3.1.5,4.1.5s1.5.2,1.5.7c0,.9-.9,1.1-2.4,1.1-4.1,0-8.5-.3-10.3-.3s-6.6.3-9.7.3-1.8-.2-1.8-1.1.6-.7,1.6-.7,1.5,0,2.9-.3c2.8-.6,3.5-4.4,4-7.8l9.7-64c.3-1.7.9-2.6,1.7-2.6s1.4.5,2.6,3l26.8,55.4,26.7-56.1c.8-1.6,1.3-2.4,2.2-2.4s1.5,1,1.8,3l8.9,60.7h0Z"/>
      <path class="st1" d="M877.9,61.4c0-14.9,0-17.7-.2-20.8-.2-3.3-1.2-5-3.3-5.5-1.1-.3-2.4-.4-3.5-.4s-1.6-.2-1.6-1,.8-.8,2.4-.8c3.7,0,9.9.3,12.8.3s8.3-.3,12-.3,2.1.2,2.1.8-.6,1-1.6,1-1.8,0-2.9.3c-2.6.5-3.4,2.2-3.6,5.6-.2,3.1-.2,5.9-.2,20.8v17.3c0,9.5,0,17.3.4,21.5.3,2.6,1,4.4,3.9,4.8,1.4.2,3.5.4,5,.4s1.6.3,1.6.8-.8,1-1.9,1c-6.5,0-12.7-.3-15.3-.3s-8.4.3-12.4.3-2-.3-2-1,.4-.8,1.6-.8,2.6-.2,3.5-.4c2-.4,2.6-2.1,2.9-4.9.5-4.1.5-11.9.5-21.4v-17.3h0Z"/>
      <path class="st1" d="M918.7,34.5c0-2,.3-3.3,1.3-3.3s2,1.3,3.6,3c1.2,1.3,16.1,17.3,30.4,31.5,6.7,6.7,20.4,21.3,22.1,22.9l-1-44.6c0-6-1-7.9-3.3-8.8-1.5-.6-3.8-.6-5.2-.6s-1.6-.3-1.6-.9,1.1-.9,2.6-.9c5.1,0,9.8.3,11.9.3s4.8-.3,9.6-.3,2.3,0,2.3.9-.6.9-1.8.9-1.8,0-2.9.3c-2.8.8-3.5,2.9-3.6,8.3-.4,20.7-.7,41.3-1.1,62,0,2.2-.4,3-1.3,3s-2.3-1.1-3.3-2.2c-6.2-5.9-18.8-18.8-29-28.9-10.7-10.6-21.9-23.2-23.7-25l1.1,41.6c.2,7.7,1.5,10.2,3.4,10.9,1.7.6,3.5.7,5.1.7s1.7.2,1.7.8-.9,1-2.3,1c-6.4,0-10.3-.3-12.2-.3s-5.5.3-10.6.3-2.2,0-2.2-1,.6-.8,1.6-.8,3,0,4.4-.5c2.6-.8,2.9-3.6,3-12.2.3-20.8.7-45.1.9-58.2h0Z"/>
      <path class="st1" d="M1015.3,81.5c-.5,0-.7.2-.9.8l-5.3,14.1c-1,2.5-1.5,4.8-1.5,6,0,1.8.9,3,3.9,3h1.5c1.2,0,1.5.2,1.5.8s-.6,1-1.7,1c-3.1,0-7.4-.3-10.4-.3s-6.5.3-11.6.3-1.9-.2-1.9-1,.6-.8,1.4-.8,2.1,0,2.9-.2c4.5-.6,6.4-3.9,8.3-8.8l24.7-61.7c1.2-2.9,1.9-3.9,2.8-3.9s1.5.9,2.5,3.1c2.4,5.4,18.1,45.5,24.4,60.4,3.7,8.8,6.6,10.2,8.6,10.7,1.5.3,2.9.4,4.1.4s1.3.2,1.3.8-.9,1-4.5,1-11.4,0-19.2-.2c-1.8,0-2.3-.2-2.3-.8s.4-.8,1.4-.9c.7-.2,1.4-1.1.9-2.3l-7.9-20.8c-.2-.5-.5-.7-1-.7h-21.9ZM1035.3,76.6c.5,0,.6-.3.5-.6l-8.8-24.3c-.3-.9-.7-1.2-1.1,0l-9,24.2c0,.4,0,.7.4.7h18.1,0Z"/>
    </g>
    <line class="st0" x1="615.1" y1="123.8" x2="1069.8" y2="123.8"/>
    <g id="cross-2">
      <polygon class="st2" points="885.9 20.1 885.9 15 882.7 15 882.7 20.1 877.6 20.1 877.6 23.3 882.7 23.3 882.7 32 885.9 32 885.9 23.3 890.9 23.3 890.9 20.1 885.9 20.1"/>
    </g>
    <g>
      <path class="st1" d="M628.8,153.9c-2.5-2.3-3.1-5.2-3.1-7.7s.6-4.8,2.9-7.1,3.9-2.8,7.9-2.8,2.5,0,3.8.3c1,.2,1.8.3,2.7.4.2,0,.2.1.2.3s0,.5-.1,1.4c0,.9,0,2.3,0,2.7s0,.5-.2.5-.2-.2-.2-.5c0-1-.4-2.1-1.1-2.6-.9-.8-2.9-1.5-5.2-1.5-3.5,0-5,1-6,1.9-1.9,1.8-2.3,4.1-2.3,6.8,0,5,3.8,9.5,9.4,9.5s3.5-.2,4.5-1.3c.5-.6.9-1.7,1-2.2,0-.3.1-.4.3-.4s.2.2.2.4-.3,2.4-.6,3.3c-.2.5-.2.5-.7.8-1,.4-3,.6-4.7.6-3.9,0-6.5-1-8.6-2.8h0Z"/>
      <path class="st1" d="M648.4,147.9c0-3.5,2.7-8.6,9.1-8.6s9,3.1,9,8.3-3.7,9-9.2,9-8.9-4.7-8.9-8.6ZM664.1,148.2c0-5.2-3.2-8.1-6.8-8.1s-6.5,2.2-6.5,7.1,2.8,8.4,7.2,8.4,6.1-.9,6.1-7.5h0Z"/>
      <path class="st1" d="M673.8,146c0-3.6,0-4,0-4.7,0-.7-.3-1.1-1-1.2-.2,0-.6,0-.8,0s-.2,0-.2-.1c0-.2.1-.2.4-.2,1.1,0,2.5,0,2.7,0,.5,0,1.9,0,2.9,0,2.9,0,3.9.9,4.3,1.2.5.4,1.1,1.4,1.1,2.9,0,2.9-2.4,5-5.6,5s-.4,0-.5,0c-.1,0-.2,0-.2-.2,0-.2.2-.2.7-.2,2,0,3.8-1.4,3.8-3.7s0-1.9-1.1-3.1c-1.3-1.4-2.7-1.2-3.2-1.2s-.7,0-.9.1c-.1,0-.2.2-.2.4v9c0,2,0,3.9.1,4.8,0,.6.2,1.1.9,1.2.3,0,.8.1,1,.1s.2,0,.2.1c0,.1-.1.2-.4.2-1.4,0-2.8,0-2.9,0s-1.6,0-2.3,0-.4,0-.4-.2,0-.1.2-.1c.2,0,.5,0,.7-.1.5,0,.6-.6.7-1.2.1-.9.1-2.8.1-4.7v-3.9h0Z"/>
      <path class="st1" d="M696,149.9c0,2,0,3.8.1,4.8,0,.6.1,1,.8,1.1.3,0,.8.1,1,.1s.3,0,.3.2c0,.1,0,.2-.3.2-1.3,0-2.9,0-3,0s-1.6,0-2.3,0-.4,0-.4-.2,0-.2.3-.2.4,0,.6,0c.5,0,.6-.4.7-1.3.1-.9.1-2.8.1-4.7v-9.2c-.9,0-2.2,0-3.3,0-1.7,0-2,.3-2.4.8-.2.4-.3.7-.4.8,0,.2-.1.2-.2.2s-.1-.1-.1-.2c0-.2.4-1.9.5-2.6,0-.3.2-.4.2-.4.2,0,.7.2,1.1.3.9.1,1.6.1,1.7.1h8.5c.7,0,1.5,0,1.9-.1.3,0,.4-.1.5-.1s.2.1.2.2c0,.7,0,2.4,0,2.6s-.1.3-.2.3c-.1,0-.2-.1-.2-.3s0-.1,0-.4c-.1-1-.4-1.3-3.1-1.3-1,0-1.8,0-2.5,0v9.2h0Z"/>
      <path class="st1" d="M708.7,146c0-3.4,0-4,0-4.7,0-.7-.2-1.1-.8-1.2-.3,0-.4,0-.6,0-.2,0-.3,0-.3-.2s.1-.2.4-.2c.8,0,2.3,0,2.4,0s1.6,0,2.3,0,.4,0,.4.2,0,.2-.3.2c-.2,0-.3,0-.5,0-.8.1-.8.5-.9,1.2,0,.7,0,1.3,0,4.7v3.9c0,2,0,3.8.1,4.7.1.8.2,1,.9,1.2.3,0,.9.1,1,.1.2,0,.3,0,.3.2s-.1.2-.4.2c-1.3,0-2.8,0-3,0s-1.6,0-2.3,0-.4,0-.4-.2.1-.2.3-.2.4,0,.6,0c.4-.1.5-.6.6-1.2.1-.9.1-2.8.1-4.7v-3.9h0Z"/>
      <path class="st1" d="M720.9,154.2c-2.2-1.9-2.8-4.5-2.8-6.6s.6-4,2.6-6c1.4-1.4,3.5-2.3,7-2.3s2.2.1,3.4.3c.8.1,1.7.3,2.3.3.2,0,.2.1.2.3,0,.2,0,.4-.1,1.3,0,.7,0,2.1,0,2.4,0,.4,0,.5-.2.5-.2,0-.2-.2-.2-.5,0-.8-.4-1.8-1-2.3-.8-.7-2.6-1.3-4.6-1.3-2.9,0-4.2.8-5,1.5-1.7,1.5-2.1,3.4-2.1,5.7,0,4.3,3.5,8.1,8.1,8.1s3.1-.2,4-1.1c.5-.5.7-1.1.9-1.9,0-.3.1-.4.3-.4s.1.2.1.4-.3,2.3-.5,2.9c-.2.4-.2.5-.6.6-.9.4-2.6.5-4.1.5-3.4,0-5.8-.8-7.6-2.4h0Z"/>
      <path class="st1" d="M749.3,146.5c0-4.2,3.1-10.1,10.2-10.1s10.2,3.7,10.2,9.7-4.1,10.6-10.3,10.6-10.1-5.5-10.1-10.2h0ZM767.2,146.8c0-6.2-3.8-9.6-7.9-9.6s-7.6,2.9-7.6,8.5,3.6,9.9,8.3,9.9,7.1-1.4,7.1-8.9Z"/>
      <path class="st1" d="M777.4,146c0-3.4,0-4,0-4.7,0-.7-.2-1.1-1-1.2-.2,0-.4,0-.6,0s-.3,0-.3-.2,0-.2.3-.2c1.1,0,2.7,0,2.7,0,.2,0,2,0,2.7,0,1.4,0,3,.1,4.3,1,.5.4,1.6,1.4,1.6,3.2s-.7,3.2-2.7,4.9c1.9,2.3,3.5,4.3,4.8,5.6,1.2,1.3,2,1.5,2.7,1.6.2,0,.7,0,.8,0,.2,0,.3,0,.3.2s-.1.2-.5.2h-1.8c-1.2,0-1.8,0-2.4-.3-1.1-.5-1.9-1.6-3.2-3.4-1-1.2-2-2.6-2.5-3.2-.1-.1-.2-.2-.3-.2h-2.7c-.1,0-.1,0-.1,0v.4c0,2.1,0,4,.1,4.9,0,.6.2,1.1,1,1.2.3,0,.5,0,.8,0s.3,0,.3.2c0,.1-.1.2-.4.2-1.4,0-2.8,0-2.9,0-.4,0-1.6,0-2.3,0s-.4,0-.4-.2.2-.2.3-.2.4,0,.6,0c.4,0,.6-.4.7-1,.1-.9.1-3.1.1-5v-3.9h0ZM779.4,147.8c0,.1,0,.3.1.3.3.2,1.4.3,2.3.3s1.2,0,1.7-.4c.8-.5,1.3-1.6,1.3-3.3,0-2.8-1.5-4.4-3.8-4.4s-1.2,0-1.5.1c0,0-.2.1-.2.2v7.1h0Z"/>
      <path class="st1" d="M800.9,149.9c0,2,0,3.8.1,4.8,0,.6.1,1,.8,1.1.3,0,.8.1,1,.1s.3,0,.3.2c0,.1,0,.2-.3.2-1.3,0-2.9,0-3,0s-1.6,0-2.3,0-.4,0-.4-.2,0-.2.3-.2.4,0,.6,0c.5,0,.6-.4.7-1.3.1-.9.1-2.8.1-4.7v-9.2c-.9,0-2.2,0-3.3,0-1.7,0-2,.3-2.4.8-.2.4-.3.7-.4.8,0,.2-.1.2-.2.2s-.1-.1-.1-.2c0-.2.4-1.9.5-2.6,0-.3.2-.4.2-.4.2,0,.7.2,1.1.3.9.1,1.6.1,1.7.1h8.5c.7,0,1.5,0,1.9-.1.3,0,.4-.1.5-.1s.2.1.2.2c0,.7,0,2.4,0,2.6s-.1.3-.2.3c-.1,0-.2-.1-.2-.3s0-.1,0-.4c-.1-1-.4-1.3-3.1-1.3-1,0-1.8,0-2.5,0v9.2h0Z"/>
      <path class="st1" d="M825.3,146.6c0,0,.2,0,.2-.1v-.5c0-3.4,0-4,0-4.7,0-.7-.2-1.1-1-1.2-.2,0-.4,0-.7,0s-.3,0-.3-.2c0-.2.1-.2.4-.2,1.1,0,2.6,0,2.7,0s1.6,0,2.3,0,.4,0,.4.2,0,.2-.3.2-.4,0-.5,0c-.7.1-.8.5-.9,1.2,0,.7,0,1.3,0,4.7v3.9c0,2.1,0,3.8.1,4.7,0,.6.2,1.1.9,1.2.3,0,.7,0,.9,0s.3,0,.3.2-.1.2-.4.2c-1.3,0-2.8,0-2.9,0s-1.6,0-2.3,0-.4,0-.4-.2,0-.2.3-.2.4,0,.6,0c.4,0,.6-.6.6-1.2.1-.9.1-2.6.1-4.7v-2.3c0-.1,0-.2-.2-.2h-9.4c0,0-.1,0-.1.2v2.3c0,2.1,0,3.8.1,4.7,0,.6.2,1.1.9,1.2.3,0,.7,0,.9,0s.3,0,.3.2-.1.2-.3.2c-1.3,0-2.9,0-3,0s-1.7,0-2.3,0-.4,0-.4-.2,0-.2.3-.2.4,0,.6,0c.5-.1.6-.6.7-1.2.2-.9.1-2.7.1-4.8v-3.8c0-3.4,0-4.1,0-4.8,0-.7-.2-1.2-1-1.2-.2,0-.5,0-.7,0s-.3,0-.3-.2c0-.2.1-.2.4-.2,1.1,0,2.4,0,2.7,0s1.6,0,2.3,0,.4,0,.4.2-.1.2-.3.2-.2,0-.5,0c-.7.1-.8.5-.9,1.3,0,.7,0,1.3,0,4.7v.5c0,.1,0,.1.2.1h9.4,0Z"/>
      <path class="st1" d="M834.8,147.9c0-3.5,2.7-8.6,9.1-8.6s9,3.1,9,8.3-3.7,9-9.2,9-8.9-4.7-8.9-8.6h0ZM850.5,148.2c0-5.2-3.2-8.1-6.8-8.1s-6.5,2.2-6.5,7.1,2.8,8.4,7.2,8.4,6.1-.9,6.1-7.5h0Z"/>
      <path class="st1" d="M860.2,146c0-3.4,0-4.1,0-4.7,0-.7-.3-1.1-1-1.2-.2,0-.5,0-.8,0s-.3,0-.3-.2c0-.2.2-.2.4-.2,1.1,0,2.7,0,2.8,0,.2,0,1.5,0,3,0,2.3,0,6.5-.2,9.3,2.5,1.1,1.1,2.2,3,2.2,5.6s-1.2,4.9-2.5,6.2c-1,1-3,2.5-6.9,2.5s-2.3,0-3.2-.1c-1,0-1.8-.1-1.9-.1s-.4,0-.9,0c-.5,0-1.1,0-1.5,0s-.4,0-.4-.2,0-.2.3-.2.4,0,.6,0c.4,0,.6-.6.7-1.2.2-1,.1-2.7.1-4.8v-3.8h0ZM862.3,148.2c0,2.3,0,4.4,0,4.7,0,.8,0,1.5.3,1.7.3.4,1.1,1,3.8,1s4-.7,5.4-2c1.1-1.1,1.7-3.1,1.7-5.2,0-2.9-1.4-4.7-2.2-5.6-2.2-2.2-4.7-2.5-7.3-2.5s-1.2,0-1.3.2c-.2.1-.3.2-.3.4,0,.8,0,3,0,4.5v2.6h0Z"/>
      <path class="st1" d="M881,147.9c0-3.5,2.7-8.6,9.1-8.6s9,3.1,9,8.3-3.7,9-9.2,9-8.9-4.7-8.9-8.6ZM896.7,148.2c0-5.2-3.2-8.1-6.8-8.1s-6.5,2.2-6.5,7.1,2.8,8.4,7.2,8.4,6.1-.9,6.1-7.5h0Z"/>
      <path class="st1" d="M909.2,147.8l-3.7-6c-.6-1-.9-1.5-1.7-1.7-.4-.1-.8-.2-.9-.2-.3,0-.3-.1-.3-.2,0-.1,0-.2.4-.2.6,0,2.6,0,2.8,0s1.4,0,2.2,0,.4,0,.4.2-.1.2-.3.2-.5,0-.6,0c-.2,0-.3.2-.3.3,0,.2.1.4.3.8,1.1,1.9,1.8,3.2,3,5.1.7-1,3.1-4.6,3.3-5,.2-.3.3-.5.3-.8s0-.4-.5-.4c-.2,0-.4,0-.6,0s-.3,0-.3-.2,0-.2.4-.2c.9,0,2,0,2.2,0s1.2,0,2,0,.3,0,.3.2c0,.1-.1.2-.3.2-.2,0-.5,0-.8.1-.6.2-1.1.9-1.7,1.8l-3.7,5.3c.5.7,4.3,7.1,4.8,7.7.3.4.6.9,1.3,1,.3,0,.6.1.7.1.3,0,.3.1.3.2,0,.1-.1.2-.3.2-1.4,0-2.9,0-4.2,0-.4,0-.4-.1-.4-.2s.1-.1.3-.2c.3,0,.2-.3,0-.6-1.2-2.2-2.5-4.3-3.8-6.4l-3.5,5.7c-.2.3-.4.7-.4,1s.2.4.5.4c.2,0,.2,0,.3,0,.2,0,.3,0,.3.2s0,.2-.3.2c-.5,0-2.1,0-2.3,0s-1.2,0-2,0-.3-.1-.3-.2c0-.1.1-.2.3-.2s.4,0,.8-.1c.7-.2,1.2-.7,1.9-1.8l4.1-6.2h0Z"/>
      <path class="st1" d="M935.3,153.9c-2.5-2.3-3.1-5.2-3.1-7.7s.6-4.8,2.9-7.1c1.6-1.6,3.9-2.8,7.9-2.8s2.5,0,3.8.3c1,.2,1.8.3,2.7.4.2,0,.2.1.2.3s0,.5-.1,1.4c0,.9,0,2.3,0,2.7,0,.4,0,.5-.2.5s-.2-.2-.2-.5c0-1-.4-2.1-1.1-2.6-.9-.8-2.9-1.5-5.2-1.5-3.5,0-5.1,1-6,1.9-1.9,1.8-2.3,4.1-2.3,6.8,0,5,3.8,9.5,9.4,9.5s3.5-.2,4.5-1.3c.5-.6.9-1.7,1-2.2,0-.3.1-.4.3-.4s.2.2.2.4-.3,2.4-.6,3.3c-.2.5-.2.5-.7.8-1,.4-3,.6-4.7.6-3.9,0-6.5-1-8.6-2.8h0Z"/>
      <path class="st1" d="M968.8,146.6c0,0,.2,0,.2-.1v-.5c0-3.4,0-4,0-4.7,0-.7-.2-1.1-1-1.2-.2,0-.4,0-.6,0s-.3,0-.3-.2c0-.2.1-.2.4-.2,1.1,0,2.6,0,2.7,0s1.6,0,2.3,0,.4,0,.4.2,0,.2-.3.2-.4,0-.5,0c-.7.1-.8.5-.9,1.2,0,.7,0,1.3,0,4.7v3.9c0,2.1,0,3.8.1,4.7,0,.6.2,1.1.9,1.2.3,0,.7,0,.9,0s.3,0,.3.2-.1.2-.4.2c-1.3,0-2.8,0-2.9,0s-1.6,0-2.3,0-.4,0-.4-.2,0-.2.3-.2.4,0,.6,0c.4,0,.6-.6.7-1.2.1-.9.1-2.6.1-4.7v-2.3c0-.1,0-.2-.2-.2h-9.4c0,0-.1,0-.1.2v2.3c0,2.1,0,3.8.1,4.7,0,.6.2,1.1.9,1.2.3,0,.7,0,.9,0s.3,0,.3.2-.1.2-.3.2c-1.3,0-2.9,0-3,0s-1.7,0-2.3,0-.4,0-.4-.2,0-.2.3-.2.4,0,.6,0c.5-.1.6-.6.6-1.2.2-.9.1-2.7.1-4.8v-3.8c0-3.4,0-4.1,0-4.8,0-.7-.2-1.2-1-1.2-.2,0-.5,0-.7,0s-.3,0-.3-.2c0-.2.1-.2.4-.2,1.1,0,2.4,0,2.7,0s1.6,0,2.3,0,.4,0,.4.2-.1.2-.3.2-.2,0-.5,0c-.7.1-.8.5-.9,1.3,0,.7,0,1.3,0,4.7v.5c0,.1,0,.1.2.1h9.4Z"/>
      <path class="st1" d="M981.7,149.1c0,3.2.6,4.5,1.6,5.4,1.1,1,2.4,1.2,3.4,1.2s2.6-.4,3.5-1.5c1-1.2,1.3-3.2,1.3-5.4v-2.7c0-3.4,0-4,0-4.7,0-.8-.1-1.1-1-1.3-.2,0-.5,0-.7,0s-.3,0-.3-.2c0-.2.1-.2.4-.2,1.1,0,2.4,0,2.5,0s1.2,0,2,0,.4,0,.4.2-.1.2-.3.2-.2,0-.5,0c-.7,0-.8.5-.9,1.3,0,.7,0,1.3,0,4.7v2.3c0,2.3-.3,5.1-2.1,6.7-1.7,1.4-3.3,1.6-4.7,1.6s-3.2,0-4.8-1.6c-1.1-1-1.9-2.6-1.9-5.8v-3.2c0-3.4,0-4,0-4.7,0-.7-.2-1.1-1-1.2-.2,0-.5,0-.7,0s-.3,0-.3-.2c0-.2.1-.2.4-.2,1.1,0,2.5,0,2.7,0s1.7,0,2.4,0,.4,0,.4.2-.2.2-.3.2-.4,0-.6,0c-.6,0-.7.5-.8,1.2,0,.7,0,1.3,0,4.7v3.1h0Z"/>
      <path class="st1" d="M1001.8,146c0-3.4,0-4,0-4.7,0-.7-.2-1.1-1-1.2-.2,0-.4,0-.6,0s-.3,0-.3-.2,0-.2.3-.2c1.1,0,2.7,0,2.7,0,.2,0,2,0,2.7,0,1.4,0,3,.1,4.3,1,.5.4,1.6,1.4,1.6,3.2s-.7,3.2-2.7,4.9c1.9,2.3,3.5,4.3,4.8,5.6,1.2,1.3,2,1.5,2.7,1.6.2,0,.7,0,.8,0,.2,0,.3,0,.3.2s-.1.2-.5.2h-1.8c-1.2,0-1.8,0-2.4-.3-1.1-.5-1.9-1.6-3.2-3.4-1-1.2-2-2.6-2.5-3.2-.1-.1-.2-.2-.3-.2h-2.7c-.1,0-.1,0-.1,0v.4c0,2.1,0,4,.1,4.9,0,.6.2,1.1,1,1.2.3,0,.5,0,.8,0s.3,0,.3.2c0,.1-.1.2-.4.2-1.4,0-2.8,0-2.9,0-.4,0-1.6,0-2.3,0s-.4,0-.4-.2.2-.2.3-.2.4,0,.6,0c.4,0,.6-.4.7-1,.1-.9.1-3.1.1-5v-3.9h0ZM1003.8,147.8c0,.1,0,.3.1.3.3.2,1.4.3,2.3.3s1.2,0,1.7-.4c.8-.5,1.3-1.6,1.3-3.3,0-2.8-1.5-4.4-3.8-4.4s-1.2,0-1.5.1c0,0-.2.1-.2.2v7.1h0Z"/>
      <path class="st1" d="M1021.7,154.2c-2.2-1.9-2.8-4.5-2.8-6.6s.6-4,2.6-6c1.4-1.4,3.5-2.3,7-2.3s2.2.1,3.4.3c.8.1,1.7.3,2.3.3.2,0,.2.1.2.3,0,.2,0,.4-.1,1.3,0,.7,0,2.1,0,2.4,0,.4,0,.5-.2.5-.2,0-.2-.2-.2-.5,0-.8-.4-1.8-1-2.3-.8-.7-2.6-1.3-4.6-1.3-2.9,0-4.2.8-5,1.5-1.7,1.5-2.1,3.4-2.1,5.7,0,4.3,3.5,8.1,8.1,8.1s3.1-.2,4-1.1c.5-.5.7-1.1.9-1.9,0-.3.1-.4.3-.4s.1.2.1.4-.3,2.3-.5,2.9c-.2.4-.2.5-.6.6-.9.4-2.6.5-4.1.5-3.4,0-5.8-.8-7.6-2.4h0Z"/>
      <path class="st1" d="M1053.4,146.6c0,0,.2,0,.2-.1v-.5c0-3.4,0-4,0-4.7,0-.7-.2-1.1-1-1.2-.2,0-.4,0-.6,0s-.3,0-.3-.2c0-.2.1-.2.4-.2,1.1,0,2.6,0,2.7,0s1.6,0,2.3,0,.4,0,.4.2,0,.2-.3.2-.4,0-.5,0c-.7.1-.8.5-.9,1.2,0,.7,0,1.3,0,4.7v3.9c0,2.1,0,3.8.1,4.7,0,.6.2,1.1.9,1.2.3,0,.7,0,.9,0s.3,0,.3.2-.1.2-.4.2c-1.3,0-2.8,0-2.9,0s-1.6,0-2.3,0-.4,0-.4-.2,0-.2.3-.2.4,0,.6,0c.4,0,.6-.6.7-1.2.1-.9.1-2.6.1-4.7v-2.3c0-.1,0-.2-.2-.2h-9.4c0,0-.1,0-.1.2v2.3c0,2.1,0,3.8.1,4.7,0,.6.2,1.1.9,1.2.3,0,.7,0,.9,0s.3,0,.3.2-.1.2-.3.2c-1.3,0-2.9,0-3,0s-1.7,0-2.3,0-.4,0-.4-.2,0-.2.3-.2.4,0,.6,0c.5-.1.6-.6.6-1.2.2-.9.1-2.7.1-4.8v-3.8c0-3.4,0-4.1,0-4.8,0-.7-.2-1.2-1-1.2-.2,0-.5,0-.7,0s-.3,0-.3-.2c0-.2.1-.2.4-.2,1.1,0,2.4,0,2.7,0s1.6,0,2.3,0,.4,0,.4.2-.1.2-.3.2-.2,0-.5,0c-.7.1-.8.5-.9,1.3,0,.7,0,1.3,0,4.7v.5c0,.1,0,.1.2.1h9.4Z"/>
    </g>
  </g>
  <g>
    <g>
      <path class="st1" d="M1.9,91c-1.6-.7-1.9-1.2-1.9-3.3,0-5.4.4-11.3.5-12.9,0-1.5.4-2.6,1.2-2.6s1,.9,1,1.7c0,1.3.4,3.3.9,5,2.2,7.3,8,9.9,14.1,9.9,8.8,0,13.2-6,13.2-11.2s-1.5-9.3-9.6-15.7l-4.5-3.5c-10.8-8.4-14.5-15.3-14.5-23.3s9-18.6,22.7-18.6,6.7.4,9,.8c1.7.3,2.9.6,4,.9.9.2,1.4.5,1.4,1.2,0,1.3-.4,4.1-.4,11.8s-.3,2.9-1.1,2.9-1-.6-1-1.8-.5-3.9-2.6-6.5c-1.5-1.9-4.3-4.8-10.7-4.8s-11.7,4.2-11.7,10.1,2.3,8,10.4,14.1l2.8,2.1c11.9,8.9,16.1,15.7,16.1,25s-2.2,12.5-9.2,17.1c-4.9,3.1-10.4,4-15.6,4s-10.1-.7-14.3-2.6h0Z"/>
      <path class="st1" d="M86.7,63.7c0,9,0,16.8.5,21,.3,2.8.9,4.9,3.8,5.3,1.4.2,3.5.4,5,.4s1.6.3,1.6.8-.8,1-1.9,1c-6.5,0-12.7-.3-15.4-.3s-8.4.3-12.4.3-2-.3-2-1,.4-.8,1.6-.8,2.6-.2,3.5-.4c2-.4,2.6-2.6,2.9-5.4.5-4.1.5-11.9.5-20.9V23.4c-3.7,0-9.8.3-14.6.4-5.7.2-8,.7-9.5,2.9-1,1.5-1.5,2.6-1.7,3.4s-.5,1.2-1.1,1.2-.9-.5-.9-1.6c0-1.6,1.9-10.5,2.1-11.3.3-1.3.6-1.9,1.2-1.9s1.8,1,4.2,1.2c2.9.3,6.6.5,9.8.5h38.9c3.1,0,5.3-.3,6.8-.5,1.5-.3,2.3-.5,2.6-.5.7,0,.8.6.8,2.1s-.3,8.8-.3,11.4c0,1-.3,1.6-.9,1.6s-1-.5-1.1-2c0-.3,0-.8,0-1.1-.2-2.6-2.9-5.3-11.6-5.5-2.6,0-6.6-.2-12.4-.3v40.3h0Z"/>
      <path class="st1" d="M111.3,85.9c0-3,2.2-6.8,6.7-6.8s6.6,2.8,6.6,6.6-2.9,6.9-6.7,6.9-6.6-3.6-6.6-6.7h0Z"/>
      <path class="st1" d="M238.6,79.5c.9,6.2,1.9,9,4.8,9.9,2.9.9,4.8,1,6.1,1s1.6,0,1.6.7-1.2,1.1-2.6,1.1c-2.5,0-16-.3-19.9-.6-2.3-.2-2.9-.5-2.9-1.1s.4-.8,1.1-1.1c.6-.2.9-1.5.5-4.2l-6-43.8-21.7,45.2c-2.3,4.6-2.8,5.5-3.6,5.5s-1.9-2-3.4-4.9c-2.4-4.5-10.1-19.5-11.3-22.3-.9-2.1-7.1-15.1-10.5-22.5l-5.2,39.8c-.2,1.8-.3,3-.3,4.6s1.3,2.8,2.9,3.1c1.8.4,3.1.5,4.1.5s1.5.2,1.5.7c0,.9-.9,1.1-2.4,1.1-4.1,0-8.5-.3-10.3-.3s-6.6.3-9.7.3-1.8-.2-1.8-1.1.6-.7,1.6-.7,1.5,0,2.9-.3c2.8-.6,3.5-4.4,4-7.8l9.7-64c.3-1.7.9-2.6,1.7-2.6s1.4.5,2.6,3l26.8,55.4,26.7-56.1c.8-1.6,1.3-2.4,2.2-2.4s1.5,1,1.8,3l8.9,60.7h0Z"/>
      <path class="st1" d="M262.7,46.4c0-14.9,0-17.7-.2-20.8-.2-3.3-1.2-5-3.3-5.5-1.1-.3-2.4-.4-3.5-.4s-1.6-.2-1.6-1,.8-.8,2.4-.8c3.7,0,9.9.3,12.8.3s8.3-.3,12-.3,2.1.2,2.1.8-.6,1-1.6,1-1.8,0-2.9.3c-2.6.5-3.4,2.2-3.6,5.6-.2,3.1-.2,5.9-.2,20.8v17.3c0,9.5,0,17.3.4,21.5.3,2.6,1,4.4,3.9,4.8,1.4.2,3.5.4,5,.4s1.6.3,1.6.8-.8,1-1.9,1c-6.5,0-12.7-.3-15.3-.3s-8.4.3-12.4.3-2-.3-2-1,.4-.8,1.6-.8,2.6-.2,3.5-.4c2-.4,2.6-2.1,2.9-4.9.5-4.1.5-11.9.5-21.4v-17.3h0Z"/>
      <path class="st1" d="M303.6,19.6c0-2,.3-3.3,1.3-3.3s2,1.3,3.6,3c1.2,1.3,16.1,17.3,30.4,31.5,6.7,6.7,20.4,21.3,22.1,22.9l-1-44.6c0-6-1-7.9-3.3-8.8-1.5-.6-3.8-.6-5.2-.6s-1.6-.3-1.6-.9,1.1-.9,2.6-.9c5.1,0,9.8.3,11.9.3s4.8-.3,9.6-.3,2.3,0,2.3.9-.6.9-1.8.9-1.8,0-2.9.3c-2.8.8-3.5,2.9-3.6,8.3-.4,20.7-.7,41.3-1.1,62,0,2.2-.4,3-1.3,3s-2.3-1.1-3.3-2.2c-6.2-5.9-18.8-18.8-29-28.9-10.7-10.6-21.9-23.2-23.7-25l1.1,41.6c.2,7.7,1.5,10.2,3.4,10.9,1.7.6,3.5.7,5.1.7s1.7.2,1.7.8-.9,1-2.3,1c-6.4,0-10.3-.3-12.2-.3s-5.5.3-10.6.3-2.2,0-2.2-1,.6-.8,1.6-.8,3,0,4.4-.5c2.6-.8,2.9-3.6,3-12.2.3-20.8.7-45.1.9-58.2h0Z"/>
      <path class="st1" d="M400.1,66.5c-.5,0-.7.2-.9.8l-5.3,14.1c-1,2.5-1.5,4.8-1.5,6,0,1.8.9,3,3.9,3h1.5c1.2,0,1.5.2,1.5.8s-.6,1-1.7,1c-3.1,0-7.4-.3-10.4-.3s-6.5.3-11.6.3-1.9-.2-1.9-1,.6-.8,1.4-.8,2.1,0,2.9-.2c4.5-.6,6.4-3.9,8.3-8.8l24.7-61.7c1.2-2.9,1.9-3.9,2.8-3.9s1.5.9,2.5,3.1c2.4,5.4,18.1,45.5,24.4,60.4,3.7,8.8,6.6,10.2,8.6,10.7,1.5.3,2.9.4,4.1.4s1.3.2,1.3.8-.9,1-4.5,1-11.4,0-19.2-.2c-1.8,0-2.3-.2-2.3-.8s.4-.8,1.4-.9c.7-.2,1.4-1.1.9-2.3l-7.9-20.8c-.2-.5-.5-.7-1-.7h-21.9ZM420.2,61.6c.5,0,.6-.3.5-.6l-8.8-24.3c-.3-.9-.7-1.2-1.1,0l-9,24.2c0,.4,0,.7.4.7h18.1,0Z"/>
    </g>
    <line class="st0" y1="108.8" x2="454.6" y2="108.8"/>
    <g id="cross-21" data-name="cross-2">
      <polygon class="st2" points="270.7 5.1 270.7 0 267.5 0 267.5 5.1 262.5 5.1 262.5 8.3 267.5 8.3 267.5 17 270.7 17 270.7 8.3 275.8 8.3 275.8 5.1 270.7 5.1"/>
    </g>
    <g>
      <path class="st1" d="M13.7,138.9c-2.5-2.3-3.1-5.2-3.1-7.7s.6-4.8,2.9-7.1,3.9-2.8,7.9-2.8,2.5,0,3.8.3c1,.2,1.8.3,2.7.4.2,0,.2.1.2.3s0,.5-.1,1.4c0,.9,0,2.3,0,2.7s0,.5-.2.5-.2-.2-.2-.5c0-1-.4-2.1-1.1-2.6-.9-.8-2.9-1.5-5.2-1.5-3.5,0-5,1-6,1.9-1.9,1.8-2.3,4.1-2.3,6.8,0,5,3.8,9.5,9.4,9.5s3.5-.2,4.5-1.3c.5-.6.9-1.7,1-2.2,0-.3.1-.4.3-.4s.2.2.2.4-.3,2.4-.6,3.3c-.2.5-.2.5-.7.8-1,.4-3,.6-4.7.6-3.9,0-6.5-1-8.6-2.8h0Z"/>
      <path class="st1" d="M33.3,133c0-3.5,2.7-8.6,9.1-8.6s9,3.1,9,8.3-3.7,9-9.2,9-8.9-4.7-8.9-8.6ZM49,133.3c0-5.2-3.2-8.1-6.8-8.1s-6.5,2.2-6.5,7.1,2.8,8.4,7.2,8.4,6.1-.9,6.1-7.5h0Z"/>
      <path class="st1" d="M58.7,131c0-3.6,0-4,0-4.7,0-.7-.3-1.1-1-1.2-.2,0-.6,0-.8,0s-.2,0-.2-.1c0-.2.1-.2.4-.2,1.1,0,2.5,0,2.7,0,.5,0,1.9,0,2.9,0,2.9,0,3.9.9,4.3,1.2.5.4,1.1,1.4,1.1,2.9,0,2.9-2.4,5-5.6,5s-.4,0-.5,0c-.1,0-.2,0-.2-.2,0-.2.2-.2.7-.2,2,0,3.8-1.4,3.8-3.7s0-1.9-1.1-3.1c-1.3-1.4-2.7-1.2-3.2-1.2s-.7,0-.9.1c-.1,0-.2.2-.2.4v9c0,2,0,3.9.1,4.8,0,.6.2,1.1.9,1.2.3,0,.8.1,1,.1s.2,0,.2.1c0,.1-.1.2-.4.2-1.4,0-2.8,0-2.9,0s-1.6,0-2.3,0-.4,0-.4-.2,0-.1.2-.1c.2,0,.5,0,.7-.1.5,0,.6-.6.7-1.2.1-.9.1-2.8.1-4.7v-3.9h0Z"/>
      <path class="st1" d="M80.9,134.9c0,2,0,3.8.1,4.8,0,.6.1,1,.8,1.1.3,0,.8.1,1,.1s.3,0,.3.2c0,.1,0,.2-.3.2-1.3,0-2.9,0-3,0s-1.6,0-2.3,0-.4,0-.4-.2,0-.2.3-.2.4,0,.6,0c.5,0,.6-.4.7-1.3.1-.9.1-2.8.1-4.7v-9.2c-.9,0-2.2,0-3.3,0-1.7,0-2,.3-2.4.8-.2.4-.3.7-.4.8,0,.2-.1.2-.2.2s-.1-.1-.1-.2c0-.2.4-1.9.5-2.6,0-.3.2-.4.2-.4.2,0,.7.2,1.1.3.9.1,1.6.1,1.7.1h8.5c.7,0,1.5,0,1.9-.1.3,0,.4-.1.5-.1s.2.1.2.2c0,.7,0,2.4,0,2.6s-.1.3-.2.3c-.1,0-.2-.1-.2-.3s0-.1,0-.4c-.1-1-.4-1.3-3.1-1.3-1,0-1.8,0-2.5,0v9.2h0Z"/>
      <path class="st1" d="M93.6,131c0-3.4,0-4,0-4.7,0-.7-.2-1.1-.8-1.2-.3,0-.4,0-.6,0-.2,0-.3,0-.3-.2s.1-.2.4-.2c.8,0,2.3,0,2.4,0s1.6,0,2.3,0,.4,0,.4.2,0,.2-.3.2c-.2,0-.3,0-.5,0-.8.1-.8.5-.9,1.2,0,.7,0,1.3,0,4.7v3.9c0,2,0,3.8.1,4.7.1.8.2,1,.9,1.2.3,0,.9.1,1,.1.2,0,.3,0,.3.2s-.1.2-.4.2c-1.3,0-2.8,0-3,0s-1.6,0-2.3,0-.4,0-.4-.2.1-.2.3-.2.4,0,.6,0c.4-.1.5-.6.6-1.2.1-.9.1-2.8.1-4.7v-3.9h0Z"/>
      <path class="st1" d="M105.8,139.3c-2.2-1.9-2.8-4.5-2.8-6.6s.6-4,2.6-6c1.4-1.4,3.5-2.3,7-2.3s2.2.1,3.4.3c.8.1,1.7.3,2.3.3.2,0,.2.1.2.3,0,.2,0,.4-.1,1.3,0,.7,0,2.1,0,2.4,0,.4,0,.5-.2.5-.2,0-.2-.2-.2-.5,0-.8-.4-1.8-1-2.3-.8-.7-2.6-1.3-4.6-1.3-2.9,0-4.2.8-5,1.5-1.7,1.5-2.1,3.4-2.1,5.7,0,4.3,3.5,8.1,8.1,8.1s3.1-.2,4-1.1c.5-.5.7-1.1.9-1.9,0-.3.1-.4.3-.4s.1.2.1.4-.3,2.3-.5,2.9c-.2.4-.2.5-.6.6-.9.4-2.6.5-4.1.5-3.4,0-5.8-.8-7.6-2.4h0Z"/>
      <path class="st1" d="M134.2,131.5c0-4.2,3.1-10.1,10.2-10.1s10.2,3.7,10.2,9.7-4.1,10.6-10.3,10.6-10.1-5.5-10.1-10.2h0ZM152.1,131.8c0-6.2-3.8-9.6-7.9-9.6s-7.6,2.9-7.6,8.5,3.6,9.9,8.3,9.9,7.1-1.4,7.1-8.9Z"/>
      <path class="st1" d="M162.3,131c0-3.4,0-4,0-4.7,0-.7-.2-1.1-1-1.2-.2,0-.4,0-.6,0s-.3,0-.3-.2,0-.2.3-.2c1.1,0,2.7,0,2.7,0,.2,0,2,0,2.7,0,1.4,0,3,.1,4.3,1,.5.4,1.6,1.4,1.6,3.2s-.7,3.2-2.7,4.9c1.9,2.3,3.5,4.3,4.8,5.6,1.2,1.3,2,1.5,2.7,1.6.2,0,.7,0,.8,0,.2,0,.3,0,.3.2s-.1.2-.5.2h-1.8c-1.2,0-1.8,0-2.4-.3-1.1-.5-1.9-1.6-3.2-3.4-1-1.2-2-2.6-2.5-3.2-.1-.1-.2-.2-.3-.2h-2.7c-.1,0-.1,0-.1,0v.4c0,2.1,0,4,.1,4.9,0,.6.2,1.1,1,1.2.3,0,.5,0,.8,0s.3,0,.3.2c0,.1-.1.2-.4.2-1.4,0-2.8,0-2.9,0-.4,0-1.6,0-2.3,0s-.4,0-.4-.2.2-.2.3-.2.4,0,.6,0c.4,0,.6-.4.7-1,.1-.9.1-3.1.1-5v-3.9h0ZM164.3,132.9c0,.1,0,.3.1.3.3.2,1.4.3,2.3.3s1.2,0,1.7-.4c.8-.5,1.3-1.6,1.3-3.3,0-2.8-1.5-4.4-3.8-4.4s-1.2,0-1.5.1c0,0-.2.1-.2.2v7.1h0Z"/>
      <path class="st1" d="M185.7,134.9c0,2,0,3.8.1,4.8,0,.6.1,1,.8,1.1.3,0,.8.1,1,.1s.3,0,.3.2c0,.1,0,.2-.3.2-1.3,0-2.9,0-3,0s-1.6,0-2.3,0-.4,0-.4-.2,0-.2.3-.2.4,0,.6,0c.5,0,.6-.4.7-1.3.1-.9.1-2.8.1-4.7v-9.2c-.9,0-2.2,0-3.3,0-1.7,0-2,.3-2.4.8-.2.4-.3.7-.4.8,0,.2-.1.2-.2.2s-.1-.1-.1-.2c0-.2.4-1.9.5-2.6,0-.3.2-.4.2-.4.2,0,.7.2,1.1.3.9.1,1.6.1,1.7.1h8.5c.7,0,1.5,0,1.9-.1.3,0,.4-.1.5-.1s.2.1.2.2c0,.7,0,2.4,0,2.6s-.1.3-.2.3c-.1,0-.2-.1-.2-.3s0-.1,0-.4c-.1-1-.4-1.3-3.1-1.3-1,0-1.8,0-2.5,0v9.2h0Z"/>
      <path class="st1" d="M210.1,131.6c0,0,.2,0,.2-.1v-.5c0-3.4,0-4,0-4.7,0-.7-.2-1.1-1-1.2-.2,0-.4,0-.7,0s-.3,0-.3-.2c0-.2.1-.2.4-.2,1.1,0,2.6,0,2.7,0s1.6,0,2.3,0,.4,0,.4.2,0,.2-.3.2-.4,0-.5,0c-.7.1-.8.5-.9,1.2,0,.7,0,1.3,0,4.7v3.9c0,2.1,0,3.8.1,4.7,0,.6.2,1.1.9,1.2.3,0,.7,0,.9,0s.3,0,.3.2-.1.2-.4.2c-1.3,0-2.8,0-2.9,0s-1.6,0-2.3,0-.4,0-.4-.2,0-.2.3-.2.4,0,.6,0c.4,0,.6-.6.6-1.2.1-.9.1-2.6.1-4.7v-2.3c0-.1,0-.2-.2-.2h-9.4c0,0-.1,0-.1.2v2.3c0,2.1,0,3.8.1,4.7,0,.6.2,1.1.9,1.2.3,0,.7,0,.9,0s.3,0,.3.2-.1.2-.3.2c-1.3,0-2.9,0-3,0s-1.7,0-2.3,0-.4,0-.4-.2,0-.2.3-.2.4,0,.6,0c.5-.1.6-.6.7-1.2.2-.9.1-2.7.1-4.8v-3.8c0-3.4,0-4.1,0-4.8,0-.7-.2-1.2-1-1.2-.2,0-.5,0-.7,0s-.3,0-.3-.2c0-.2.1-.2.4-.2,1.1,0,2.4,0,2.7,0s1.6,0,2.3,0,.4,0,.4.2-.1.2-.3.2-.2,0-.5,0c-.7.1-.8.5-.9,1.3,0,.7,0,1.3,0,4.7v.5c0,.1,0,.1.2.1h9.4,0Z"/>
      <path class="st1" d="M219.6,133c0-3.5,2.7-8.6,9.1-8.6s9,3.1,9,8.3-3.7,9-9.2,9-8.9-4.7-8.9-8.6h0ZM235.3,133.3c0-5.2-3.2-8.1-6.8-8.1s-6.5,2.2-6.5,7.1,2.8,8.4,7.2,8.4,6.1-.9,6.1-7.5h0Z"/>
      <path class="st1" d="M245,131c0-3.4,0-4.1,0-4.7,0-.7-.3-1.1-1-1.2-.2,0-.5,0-.8,0s-.3,0-.3-.2c0-.2.2-.2.4-.2,1.1,0,2.7,0,2.8,0,.2,0,1.5,0,3,0,2.3,0,6.5-.2,9.3,2.5,1.1,1.1,2.2,3,2.2,5.6s-1.2,4.9-2.5,6.2c-1,1-3,2.5-6.9,2.5s-2.3,0-3.2-.1c-1,0-1.8-.1-1.9-.1s-.4,0-.9,0c-.5,0-1.1,0-1.5,0s-.4,0-.4-.2,0-.2.3-.2.4,0,.6,0c.4,0,.6-.6.7-1.2.2-1,.1-2.7.1-4.8v-3.8h0ZM247.2,133.2c0,2.3,0,4.4,0,4.7,0,.8,0,1.5.3,1.7.3.4,1.1,1,3.8,1s4-.7,5.4-2c1.1-1.1,1.7-3.1,1.7-5.2,0-2.9-1.4-4.7-2.2-5.6-2.2-2.2-4.7-2.5-7.3-2.5s-1.2,0-1.3.2c-.2.1-.3.2-.3.4,0,.8,0,3,0,4.5v2.6h0Z"/>
      <path class="st1" d="M265.9,133c0-3.5,2.7-8.6,9.1-8.6s9,3.1,9,8.3-3.7,9-9.2,9-8.9-4.7-8.9-8.6ZM281.6,133.3c0-5.2-3.2-8.1-6.8-8.1s-6.5,2.2-6.5,7.1,2.8,8.4,7.2,8.4,6.1-.9,6.1-7.5h0Z"/>
      <path class="st1" d="M294,132.8l-3.7-6c-.6-1-.9-1.5-1.7-1.7-.4-.1-.8-.2-.9-.2-.3,0-.3-.1-.3-.2,0-.1,0-.2.4-.2.6,0,2.6,0,2.8,0s1.4,0,2.2,0,.4,0,.4.2-.1.2-.3.2-.5,0-.6,0c-.2,0-.3.2-.3.3,0,.2.1.4.3.8,1.1,1.9,1.8,3.2,3,5.1.7-1,3.1-4.6,3.3-5,.2-.3.3-.5.3-.8s0-.4-.5-.4c-.2,0-.4,0-.6,0s-.3,0-.3-.2,0-.2.4-.2c.9,0,2,0,2.2,0s1.2,0,2,0,.3,0,.3.2c0,.1-.1.2-.3.2-.2,0-.5,0-.8.1-.6.2-1.1.9-1.7,1.8l-3.7,5.3c.5.7,4.3,7.1,4.8,7.7.3.4.6.9,1.3,1,.3,0,.6.1.7.1.3,0,.3.1.3.2,0,.1-.1.2-.3.2-1.4,0-2.9,0-4.2,0-.4,0-.4-.1-.4-.2s.1-.1.3-.2c.3,0,.2-.3,0-.6-1.2-2.2-2.5-4.3-3.8-6.4l-3.5,5.7c-.2.3-.4.7-.4,1s.2.4.5.4c.2,0,.2,0,.3,0,.2,0,.3,0,.3.2s0,.2-.3.2c-.5,0-2.1,0-2.3,0s-1.2,0-2,0-.3-.1-.3-.2c0-.1.1-.2.3-.2s.4,0,.8-.1c.7-.2,1.2-.7,1.9-1.8l4.1-6.2h0Z"/>
      <path class="st1" d="M320.2,138.9c-2.5-2.3-3.1-5.2-3.1-7.7s.6-4.8,2.9-7.1c1.6-1.6,3.9-2.8,7.9-2.8s2.5,0,3.8.3c1,.2,1.8.3,2.7.4.2,0,.2.1.2.3s0,.5-.1,1.4c0,.9,0,2.3,0,2.7,0,.4,0,.5-.2.5s-.2-.2-.2-.5c0-1-.4-2.1-1.1-2.6-.9-.8-2.9-1.5-5.2-1.5-3.5,0-5.1,1-6,1.9-1.9,1.8-2.3,4.1-2.3,6.8,0,5,3.8,9.5,9.4,9.5s3.5-.2,4.5-1.3c.5-.6.9-1.7,1-2.2,0-.3.1-.4.3-.4s.2.2.2.4-.3,2.4-.6,3.3c-.2.5-.2.5-.7.8-1,.4-3,.6-4.7.6-3.9,0-6.5-1-8.6-2.8h0Z"/>
      <path class="st1" d="M353.6,131.6c0,0,.2,0,.2-.1v-.5c0-3.4,0-4,0-4.7,0-.7-.2-1.1-1-1.2-.2,0-.4,0-.6,0s-.3,0-.3-.2c0-.2.1-.2.4-.2,1.1,0,2.6,0,2.7,0s1.6,0,2.3,0,.4,0,.4.2,0,.2-.3.2-.4,0-.5,0c-.7.1-.8.5-.9,1.2,0,.7,0,1.3,0,4.7v3.9c0,2.1,0,3.8.1,4.7,0,.6.2,1.1.9,1.2.3,0,.7,0,.9,0s.3,0,.3.2-.1.2-.4.2c-1.3,0-2.8,0-2.9,0s-1.6,0-2.3,0-.4,0-.4-.2,0-.2.3-.2.4,0,.6,0c.4,0,.6-.6.7-1.2.1-.9.1-2.6.1-4.7v-2.3c0-.1,0-.2-.2-.2h-9.4c0,0-.1,0-.1.2v2.3c0,2.1,0,3.8.1,4.7,0,.6.2,1.1.9,1.2.3,0,.7,0,.9,0s.3,0,.3.2-.1.2-.3.2c-1.3,0-2.9,0-3,0s-1.7,0-2.3,0-.4,0-.4-.2,0-.2.3-.2.4,0,.6,0c.5-.1.6-.6.6-1.2.2-.9.1-2.7.1-4.8v-3.8c0-3.4,0-4.1,0-4.8,0-.7-.2-1.2-1-1.2-.2,0-.5,0-.7,0s-.3,0-.3-.2c0-.2.1-.2.4-.2,1.1,0,2.4,0,2.7,0s1.6,0,2.3,0,.4,0,.4.2-.1.2-.3.2-.2,0-.5,0c-.7.1-.8.5-.9,1.3,0,.7,0,1.3,0,4.7v.5c0,.1,0,.1.2.1h9.4Z"/>
      <path class="st1" d="M366.6,134.1c0,3.2.6,4.5,1.6,5.4,1.1,1,2.4,1.2,3.4,1.2s2.6-.4,3.5-1.5c1-1.2,1.3-3.2,1.3-5.4v-2.7c0-3.4,0-4,0-4.7,0-.8-.1-1.1-1-1.3-.2,0-.5,0-.7,0s-.3,0-.3-.2c0-.2.1-.2.4-.2,1.1,0,2.4,0,2.5,0s1.2,0,2,0,.4,0,.4.2-.1.2-.3.2-.2,0-.5,0c-.7,0-.8.5-.9,1.3,0,.7,0,1.3,0,4.7v2.3c0,2.3-.3,5.1-2.1,6.7-1.7,1.4-3.3,1.6-4.7,1.6s-3.2,0-4.8-1.6c-1.1-1-1.9-2.6-1.9-5.8v-3.2c0-3.4,0-4,0-4.7,0-.7-.2-1.1-1-1.2-.2,0-.5,0-.7,0s-.3,0-.3-.2c0-.2.1-.2.4-.2,1.1,0,2.5,0,2.7,0s1.7,0,2.4,0,.4,0,.4.2-.2.2-.3.2-.4,0-.6,0c-.6,0-.7.5-.8,1.2,0,.7,0,1.3,0,4.7v3.1h0Z"/>
      <path class="st1" d="M386.7,131c0-3.4,0-4,0-4.7,0-.7-.2-1.1-1-1.2-.2,0-.4,0-.6,0s-.3,0-.3-.2,0-.2.3-.2c1.1,0,2.7,0,2.7,0,.2,0,2,0,2.7,0,1.4,0,3,.1,4.3,1,.5.4,1.6,1.4,1.6,3.2s-.7,3.2-2.7,4.9c1.9,2.3,3.5,4.3,4.8,5.6,1.2,1.3,2,1.5,2.7,1.6.2,0,.7,0,.8,0,.2,0,.3,0,.3.2s-.1.2-.5.2h-1.8c-1.2,0-1.8,0-2.4-.3-1.1-.5-1.9-1.6-3.2-3.4-1-1.2-2-2.6-2.5-3.2-.1-.1-.2-.2-.3-.2h-2.7c-.1,0-.1,0-.1,0v.4c0,2.1,0,4,.1,4.9,0,.6.2,1.1,1,1.2.3,0,.5,0,.8,0s.3,0,.3.2c0,.1-.1.2-.4.2-1.4,0-2.8,0-2.9,0-.4,0-1.6,0-2.3,0s-.4,0-.4-.2.2-.2.3-.2.4,0,.6,0c.4,0,.6-.4.7-1,.1-.9.1-3.1.1-5v-3.9h0ZM388.7,132.9c0,.1,0,.3.1.3.3.2,1.4.3,2.3.3s1.2,0,1.7-.4c.8-.5,1.3-1.6,1.3-3.3,0-2.8-1.5-4.4-3.8-4.4s-1.2,0-1.5.1c0,0-.2.1-.2.2v7.1h0Z"/>
      <path class="st1" d="M406.6,139.3c-2.2-1.9-2.8-4.5-2.8-6.6s.6-4,2.6-6c1.4-1.4,3.5-2.3,7-2.3s2.2.1,3.4.3c.8.1,1.7.3,2.3.3.2,0,.2.1.2.3,0,.2,0,.4-.1,1.3,0,.7,0,2.1,0,2.4,0,.4,0,.5-.2.5-.2,0-.2-.2-.2-.5,0-.8-.4-1.8-1-2.3-.8-.7-2.6-1.3-4.6-1.3-2.9,0-4.2.8-5,1.5-1.7,1.5-2.1,3.4-2.1,5.7,0,4.3,3.5,8.1,8.1,8.1s3.1-.2,4-1.1c.5-.5.7-1.1.9-1.9,0-.3.1-.4.3-.4s.1.2.1.4-.3,2.3-.5,2.9c-.2.4-.2.5-.6.6-.9.4-2.6.5-4.1.5-3.4,0-5.8-.8-7.6-2.4h0Z"/>
      <path class="st1" d="M438.2,131.6c0,0,.2,0,.2-.1v-.5c0-3.4,0-4,0-4.7,0-.7-.2-1.1-1-1.2-.2,0-.4,0-.6,0s-.3,0-.3-.2c0-.2.1-.2.4-.2,1.1,0,2.6,0,2.7,0s1.6,0,2.3,0,.4,0,.4.2,0,.2-.3.2-.4,0-.5,0c-.7.1-.8.5-.9,1.2,0,.7,0,1.3,0,4.7v3.9c0,2.1,0,3.8.1,4.7,0,.6.2,1.1.9,1.2.3,0,.7,0,.9,0s.3,0,.3.2-.1.2-.4.2c-1.3,0-2.8,0-2.9,0s-1.6,0-2.3,0-.4,0-.4-.2,0-.2.3-.2.4,0,.6,0c.4,0,.6-.6.7-1.2.1-.9.1-2.6.1-4.7v-2.3c0-.1,0-.2-.2-.2h-9.4c0,0-.1,0-.1.2v2.3c0,2.1,0,3.8.1,4.7,0,.6.2,1.1.9,1.2.3,0,.7,0,.9,0s.3,0,.3.2-.1.2-.3.2c-1.3,0-2.9,0-3,0s-1.7,0-2.3,0-.4,0-.4-.2,0-.2.3-.2.4,0,.6,0c.5-.1.6-.6.6-1.2.2-.9.1-2.7.1-4.8v-3.8c0-3.4,0-4.1,0-4.8,0-.7-.2-1.2-1-1.2-.2,0-.5,0-.7,0s-.3,0-.3-.2c0-.2.1-.2.4-.2,1.1,0,2.4,0,2.7,0s1.6,0,2.3,0,.4,0,.4.2-.1.2-.3.2-.2,0-.5,0c-.7.1-.8.5-.9,1.3,0,.7,0,1.3,0,4.7v.5c0,.1,0,.1.2.1h9.4Z"/>
    </g>
  </g>
</svg>